<?xml version="1.0" encoding="utf-8"?>
<!-- Generator: Adobe Illustrator 24.0.1, SVG Export Plug-In . SVG Version: 6.00 Build 0)  -->
<svg version="1.1" id="icons" xmlns="http://www.w3.org/2000/svg" xmlns:xlink="http://www.w3.org/1999/xlink" x="0px" y="0px"
	 viewBox="0 0 44.1 39.7" style="enable-background:new 0 0 44.1 39.7;" xml:space="preserve">
<style type="text/css">
	.st0{fill:#5F249F;}
</style>
<title>Agile_All_116739419</title>
<g>
	<rect x="17.4" y="0" class="st0" width="16" height="2"/>
	<rect x="4.4" y="13" class="st0" width="14" height="2"/>
	<rect x="8.4" y="5" class="st0" width="2" height="2"/>
	<rect x="4.4" y="5" class="st0" width="2" height="2"/>
	<path class="st0" d="M36,18.8l-4.2-9l-0.1-0.1C30.6,8.6,27,5,24.8,5H12.4v2h12.5c0.9,0,3.4,2,5.3,4l4.5,9.6l9.2,1.5l0.3-2L36,18.8z
		"/>
	<path class="st0" d="M22.2,27.3c-2.3-2.6-3-6.4-1.6-7.9c1.9-1.9,5.4-5.6,5.4-5.6l0.6-0.6l-3.3-4.4L17,8.1l-0.2,2l5.5,0.6l1.8,2.4
		c-1.1,1.1-3.4,3.5-4.8,5c-2.3,2.3-1.6,7.2,1.5,10.7l2.2,2.2L14.8,36l1.1,1.7l10.2-6.4L22.2,27.3z"/>
	<path class="st0" d="M30.6,19.4l-0.7-1l-5.2,5.3l5,7.5c0.2,0.3,0.2,0.6,0.1,0.9c-0.1,0.4-0.5,0.7-0.9,0.9l-12.3,4.8l0.7,1.9
		l12.3-4.8c1-0.3,1.7-1.1,2.1-2.1c0.3-0.9,0.2-1.9-0.4-2.7L27.3,24l2.4-2.4c0.8,1.1,1.7,2.2,2.6,3.2l0.3,0.3h7.8v-2h-7
		C32.4,21.9,31.4,20.7,30.6,19.4z"/>
	<rect x="3" y="32" transform="matrix(0.8748 -0.4845 0.4845 0.8748 -14.6616 9.3621)" class="st0" width="15.6" height="2"/>
	<rect x="-1.2" y="28.5" transform="matrix(0.8164 -0.5774 0.5774 0.8164 -15.4938 10.2314)" class="st0" width="19" height="2"/>
	<path class="st0" d="M39.3,15.1c2.6,0,4.6-2.1,4.6-4.6c0-2.6-2.1-4.6-4.6-4.7c-2.6,0-4.6,2.1-4.6,4.6c0,0,0,0,0,0
		C34.6,13,36.7,15.1,39.3,15.1z M36.6,10.5c0-1.5,1.2-2.6,2.6-2.6c1.5,0,2.6,1.2,2.6,2.6c0,1.5-1.2,2.6-2.6,2.6
		C37.8,13.1,36.6,11.9,36.6,10.5C36.6,10.5,36.6,10.5,36.6,10.5z"/>
</g>
</svg>
