<?xml version="1.0" encoding="utf-8"?>
<!-- Generator: Adobe Illustrator 25.2.1, SVG Export Plug-In . SVG Version: 6.00 Build 0)  -->
<svg version="1.1" id="icons" xmlns="http://www.w3.org/2000/svg" xmlns:xlink="http://www.w3.org/1999/xlink" x="0px" y="0px"
	 viewBox="0 0 43.4 47.7" style="enable-background:new 0 0 43.4 47.7;" xml:space="preserve">
<style type="text/css">
	.st0{fill:#5F249F;}
</style>
<g>
	<rect y="42" class="st0" width="11" height="2"/>
	<path class="st0" d="M38.7,38.3l-1.4,1.4l2.3,2.3H21c-8.8,0-16-7.2-16-16s7.2-16,16-16c8.8,0,16,7.2,16,16c0,5.5-2.9,10.7-7.5,13.6
		l1.1,1.7c8.4-5.3,11-16.4,5.7-24.8c-0.8-1.3-1.7-2.4-2.8-3.5l1.6-1.6l1.3,1.3l1.4-1.4l-4-4l-1.4,1.4l1.3,1.3l-1.7,1.7
		c-2.3-1.8-5-2.9-7.9-3.4V6h3V0H15v6h3v2.3c-2.9,0.5-5.6,1.7-7.9,3.4L8.4,10l1.3-1.3L8.3,7.3l-4,4l1.4,1.4L7,11.4L8.6,13
		C1.4,19.9,1.2,31.3,8,38.4C11.4,42,16.1,44,21,44h18.6l-2.3,2.3l1.4,1.4l4.7-4.7L38.7,38.3z M22,8.1C21.7,8,21.3,8,21,8
		s-0.7,0-1,0.1V6h2V8.1z M17,4V2h8v2H17z"/>
	<path class="st0" d="M25.6,14.9c0.6,0.3,1.3,0.6,1.8,1l1.1-1.7C22,10,13.4,11.9,9.2,18.5c-0.4,0.7-0.8,1.4-1.1,2.2l1.8,0.8
		C12.5,15.3,19.5,12.4,25.6,14.9z"/>
	<path class="st0" d="M29.8,15.8L23,22.6c-1.9-1.1-4.4-0.4-5.4,1.6c-0.7,1.2-0.7,2.6,0,3.8l-2.3,2.3l1.4,1.4l2.3-2.3
		c1.9,1.1,4.4,0.4,5.4-1.6c0.7-1.2,0.7-2.7,0-3.9l6.8-6.8L29.8,15.8z M21,28c-1.1,0-2-0.9-2-2c0-1.1,0.9-2,2-2s2,0.9,2,2
		C23,27.1,22.1,28,21,28z"/>
</g>
</svg>
