<?xml version="1.0" encoding="utf-8"?>
<!-- Generator: Adobe Illustrator 25.2.1, SVG Export Plug-In . SVG Version: 6.00 Build 0)  -->
<svg version="1.1" id="icons" xmlns="http://www.w3.org/2000/svg" xmlns:xlink="http://www.w3.org/1999/xlink" x="0px" y="0px"
	 viewBox="0 0 45.2 45.2" style="enable-background:new 0 0 45.2 45.2;" xml:space="preserve">
<style type="text/css">
	.st0{fill:#5F249F;}
</style>
<path class="st0" d="M45.1,7.8c-0.2-1-1.2-1.7-2.2-1.5c-0.4,0.1-0.7,0.2-1,0.5l-3.8,3.8l-3.5-3.4l3.8-3.8c0.5-0.5,0.7-1.2,0.5-1.9
	c-0.2-0.7-0.7-1.2-1.4-1.3c-5.2-1-10.2,2.4-11.3,7.6c-0.3,1.6-0.2,3.2,0.3,4.7l-14,14c-5.1-1.6-10.4,1.2-12,6.3
	c-0.5,1.5-0.6,3.1-0.3,4.7c0.2,1,1.2,1.7,2.2,1.5c0.4-0.1,0.7-0.2,1-0.5l3.8-3.8l3.5,3.4l-3.9,3.8c-0.7,0.7-0.7,1.9,0,2.6
	c0.3,0.3,0.6,0.4,1,0.5c0.6,0.1,1.2,0.2,1.9,0.2c5.3,0,9.6-4.3,9.6-9.6c0-1-0.1-1.9-0.4-2.9l14-14c5.1,1.6,10.4-1.2,12-6.3
	C45.3,11,45.4,9.3,45.1,7.8z M41,15c-2,2-5,2.7-7.7,1.9c-0.7-0.2-1.4-0.1-1.9,0.4L17.3,31.4c-0.5,0.5-0.7,1.2-0.4,1.9
	c1.3,4-0.9,8.3-4.9,9.6c-1.1,0.4-2.4,0.5-3.6,0.3l3.8-3.8c0.4-0.3,0.6-0.8,0.5-1.3c0-0.5-0.2-1-0.5-1.3l-3.7-3.7
	c-0.7-0.7-1.9-0.7-2.6,0l-3.8,3.8c-0.7-4.1,2.1-8,6.2-8.7c1.2-0.2,2.4-0.1,3.6,0.3c0.7,0.2,1.4,0,1.9-0.4L28,13.8
	c0.5-0.5,0.7-1.2,0.4-1.9c-1.3-4,0.9-8.3,4.9-9.6c1.1-0.4,2.4-0.5,3.5-0.3L33,5.8c-0.7,0.7-0.7,1.9,0,2.6l3.7,3.7
	c0.7,0.7,1.9,0.7,2.6,0l3.8-3.8C43.5,10.8,42.7,13.3,41,15z"/>
</svg>
